<mxfile host="Electron" modified="2024-05-30T18:39:27.999Z" agent="Mozilla/5.0 (Windows NT 10.0; Win64; x64) AppleWebKit/537.36 (KHTML, like Gecko) draw.io/24.2.5 Chrome/120.0.6099.109 Electron/28.1.0 Safari/537.36" etag="7Aje2ICXyS2EFR1xFAFP" version="24.2.5" type="device">
  <diagram name="Page-1" id="c6l8o4CSisGifWPA_ACX">
    <mxGraphModel dx="1050" dy="621" grid="1" gridSize="10" guides="1" tooltips="1" connect="1" arrows="1" fold="1" page="1" pageScale="1" pageWidth="1019" pageHeight="1320" math="0" shadow="0">
      <root>
        <mxCell id="0" />
        <mxCell id="1" parent="0" />
        <mxCell id="uQ8c9gtlmT0X5EnP0eYv-6" value="" style="ellipse;whiteSpace=wrap;html=1;aspect=fixed;" parent="1" vertex="1">
          <mxGeometry x="522.5" y="222.5" width="65" height="65" as="geometry" />
        </mxCell>
        <mxCell id="uQ8c9gtlmT0X5EnP0eYv-36" style="edgeStyle=orthogonalEdgeStyle;rounded=0;orthogonalLoop=1;jettySize=auto;html=1;exitX=1;exitY=0.5;exitDx=0;exitDy=0;entryX=0;entryY=0.5;entryDx=0;entryDy=0;" parent="1" source="uQ8c9gtlmT0X5EnP0eYv-1" target="uQ8c9gtlmT0X5EnP0eYv-2" edge="1">
          <mxGeometry relative="1" as="geometry" />
        </mxCell>
        <mxCell id="uQ8c9gtlmT0X5EnP0eYv-1" value="&lt;font style=&quot;font-size: 17px;&quot;&gt;&lt;b&gt;1&lt;/b&gt;&lt;/font&gt;" style="ellipse;whiteSpace=wrap;html=1;aspect=fixed;" parent="1" vertex="1">
          <mxGeometry x="150" y="230" width="50" height="50" as="geometry" />
        </mxCell>
        <mxCell id="uQ8c9gtlmT0X5EnP0eYv-37" value="" style="edgeStyle=orthogonalEdgeStyle;rounded=0;orthogonalLoop=1;jettySize=auto;html=1;" parent="1" source="uQ8c9gtlmT0X5EnP0eYv-2" target="uQ8c9gtlmT0X5EnP0eYv-3" edge="1">
          <mxGeometry relative="1" as="geometry" />
        </mxCell>
        <mxCell id="uQ8c9gtlmT0X5EnP0eYv-2" value="&lt;font style=&quot;font-size: 17px;&quot;&gt;&lt;b&gt;2&lt;/b&gt;&lt;/font&gt;" style="ellipse;whiteSpace=wrap;html=1;aspect=fixed;" parent="1" vertex="1">
          <mxGeometry x="240" y="230" width="50" height="50" as="geometry" />
        </mxCell>
        <mxCell id="uQ8c9gtlmT0X5EnP0eYv-38" value="" style="edgeStyle=orthogonalEdgeStyle;rounded=0;orthogonalLoop=1;jettySize=auto;html=1;" parent="1" source="uQ8c9gtlmT0X5EnP0eYv-3" target="uQ8c9gtlmT0X5EnP0eYv-4" edge="1">
          <mxGeometry relative="1" as="geometry" />
        </mxCell>
        <mxCell id="uQ8c9gtlmT0X5EnP0eYv-3" value="&lt;font style=&quot;font-size: 17px;&quot;&gt;&lt;b&gt;3&lt;/b&gt;&lt;/font&gt;" style="ellipse;whiteSpace=wrap;html=1;aspect=fixed;" parent="1" vertex="1">
          <mxGeometry x="330" y="230" width="50" height="50" as="geometry" />
        </mxCell>
        <mxCell id="uQ8c9gtlmT0X5EnP0eYv-40" value="" style="edgeStyle=orthogonalEdgeStyle;rounded=0;orthogonalLoop=1;jettySize=auto;html=1;" parent="1" source="uQ8c9gtlmT0X5EnP0eYv-4" target="uQ8c9gtlmT0X5EnP0eYv-5" edge="1">
          <mxGeometry relative="1" as="geometry" />
        </mxCell>
        <mxCell id="uQ8c9gtlmT0X5EnP0eYv-4" value="&lt;font style=&quot;font-size: 17px;&quot;&gt;&lt;b&gt;4&lt;/b&gt;&lt;/font&gt;" style="ellipse;whiteSpace=wrap;html=1;aspect=fixed;" parent="1" vertex="1">
          <mxGeometry x="420" y="230" width="50" height="50" as="geometry" />
        </mxCell>
        <mxCell id="uQ8c9gtlmT0X5EnP0eYv-5" value="&lt;font style=&quot;font-size: 17px;&quot;&gt;&lt;b&gt;5&lt;/b&gt;&lt;/font&gt;" style="ellipse;whiteSpace=wrap;html=1;aspect=fixed;" parent="1" vertex="1">
          <mxGeometry x="530" y="230" width="50" height="50" as="geometry" />
        </mxCell>
        <mxCell id="uQ8c9gtlmT0X5EnP0eYv-14" style="edgeStyle=orthogonalEdgeStyle;rounded=0;orthogonalLoop=1;jettySize=auto;html=1;exitX=0;exitY=1;exitDx=0;exitDy=0;entryX=0.848;entryY=1;entryDx=0;entryDy=0;entryPerimeter=0;curved=1;" parent="1" source="uQ8c9gtlmT0X5EnP0eYv-3" target="uQ8c9gtlmT0X5EnP0eYv-1" edge="1">
          <mxGeometry relative="1" as="geometry">
            <Array as="points">
              <mxPoint x="337" y="320" />
              <mxPoint x="192" y="320" />
            </Array>
          </mxGeometry>
        </mxCell>
        <mxCell id="uQ8c9gtlmT0X5EnP0eYv-15" style="edgeStyle=orthogonalEdgeStyle;rounded=0;orthogonalLoop=1;jettySize=auto;html=1;exitX=0;exitY=1;exitDx=0;exitDy=0;entryX=0.712;entryY=0.936;entryDx=0;entryDy=0;entryPerimeter=0;curved=1;" parent="1" source="uQ8c9gtlmT0X5EnP0eYv-4" target="uQ8c9gtlmT0X5EnP0eYv-2" edge="1">
          <mxGeometry relative="1" as="geometry">
            <Array as="points">
              <mxPoint x="427" y="310" />
              <mxPoint x="276" y="310" />
            </Array>
          </mxGeometry>
        </mxCell>
        <mxCell id="uQ8c9gtlmT0X5EnP0eYv-18" value="" style="curved=1;endArrow=classic;html=1;rounded=0;" parent="1" edge="1">
          <mxGeometry width="50" height="50" relative="1" as="geometry">
            <mxPoint x="587.5" y="270" as="sourcePoint" />
            <mxPoint x="587.5" y="240" as="targetPoint" />
            <Array as="points">
              <mxPoint x="587.5" y="270" />
              <mxPoint x="617.5" y="250" />
            </Array>
          </mxGeometry>
        </mxCell>
        <mxCell id="uQ8c9gtlmT0X5EnP0eYv-20" value="" style="curved=1;endArrow=classic;html=1;rounded=0;" parent="1" edge="1">
          <mxGeometry width="50" height="50" relative="1" as="geometry">
            <mxPoint x="165" y="230" as="sourcePoint" />
            <mxPoint x="185" y="230" as="targetPoint" />
            <Array as="points">
              <mxPoint x="165" y="230" />
              <mxPoint x="175" y="200" />
            </Array>
          </mxGeometry>
        </mxCell>
        <mxCell id="uQ8c9gtlmT0X5EnP0eYv-21" value="&lt;b&gt;B&lt;/b&gt;" style="text;html=1;align=center;verticalAlign=middle;whiteSpace=wrap;rounded=0;" parent="1" vertex="1">
          <mxGeometry x="145" y="180" width="60" height="30" as="geometry" />
        </mxCell>
        <mxCell id="uQ8c9gtlmT0X5EnP0eYv-22" value="&lt;b&gt;A&lt;/b&gt;" style="text;html=1;align=center;verticalAlign=middle;whiteSpace=wrap;rounded=0;" parent="1" vertex="1">
          <mxGeometry x="190" y="230" width="60" height="30" as="geometry" />
        </mxCell>
        <mxCell id="uQ8c9gtlmT0X5EnP0eYv-23" value="&lt;b&gt;A&lt;/b&gt;" style="text;html=1;align=center;verticalAlign=middle;whiteSpace=wrap;rounded=0;" parent="1" vertex="1">
          <mxGeometry x="370" y="230" width="60" height="30" as="geometry" />
        </mxCell>
        <mxCell id="uQ8c9gtlmT0X5EnP0eYv-24" value="&lt;b&gt;A&lt;/b&gt;" style="text;html=1;align=center;verticalAlign=middle;whiteSpace=wrap;rounded=0;" parent="1" vertex="1">
          <mxGeometry x="235" y="180" width="60" height="30" as="geometry" />
        </mxCell>
        <mxCell id="uQ8c9gtlmT0X5EnP0eYv-27" value="" style="curved=1;endArrow=classic;html=1;rounded=0;" parent="1" edge="1">
          <mxGeometry width="50" height="50" relative="1" as="geometry">
            <mxPoint x="255" y="230" as="sourcePoint" />
            <mxPoint x="275" y="230" as="targetPoint" />
            <Array as="points">
              <mxPoint x="255" y="230" />
              <mxPoint x="265" y="200" />
            </Array>
          </mxGeometry>
        </mxCell>
        <mxCell id="uQ8c9gtlmT0X5EnP0eYv-29" value="&lt;b&gt;A&lt;/b&gt;" style="text;html=1;align=center;verticalAlign=middle;whiteSpace=wrap;rounded=0;" parent="1" vertex="1">
          <mxGeometry x="340" y="310" width="60" height="30" as="geometry" />
        </mxCell>
        <mxCell id="uQ8c9gtlmT0X5EnP0eYv-32" value="&lt;b&gt;B&lt;/b&gt;" style="text;html=1;align=center;verticalAlign=middle;whiteSpace=wrap;rounded=0;" parent="1" vertex="1">
          <mxGeometry x="280" y="230" width="60" height="30" as="geometry" />
        </mxCell>
        <mxCell id="uQ8c9gtlmT0X5EnP0eYv-33" value="&lt;b&gt;B&lt;/b&gt;" style="text;html=1;align=center;verticalAlign=middle;whiteSpace=wrap;rounded=0;" parent="1" vertex="1">
          <mxGeometry x="470" y="230" width="60" height="30" as="geometry" />
        </mxCell>
        <mxCell id="uQ8c9gtlmT0X5EnP0eYv-34" value="&lt;b&gt;B&lt;/b&gt;" style="text;html=1;align=center;verticalAlign=middle;whiteSpace=wrap;rounded=0;" parent="1" vertex="1">
          <mxGeometry x="230" y="317.5" width="60" height="30" as="geometry" />
        </mxCell>
        <mxCell id="uQ8c9gtlmT0X5EnP0eYv-41" value="&lt;b&gt;A, B&lt;/b&gt;" style="text;html=1;align=center;verticalAlign=middle;whiteSpace=wrap;rounded=0;" parent="1" vertex="1">
          <mxGeometry x="600" y="240" width="60" height="30" as="geometry" />
        </mxCell>
        <mxCell id="A5R1GtwCYQM4hs3NCLZG-1" style="edgeStyle=orthogonalEdgeStyle;rounded=0;orthogonalLoop=1;jettySize=auto;html=1;exitX=1;exitY=0.5;exitDx=0;exitDy=0;entryX=0;entryY=0.5;entryDx=0;entryDy=0;" edge="1" parent="1" source="A5R1GtwCYQM4hs3NCLZG-2">
          <mxGeometry relative="1" as="geometry">
            <mxPoint x="145" y="255" as="targetPoint" />
          </mxGeometry>
        </mxCell>
        <mxCell id="A5R1GtwCYQM4hs3NCLZG-2" value="&lt;b&gt;START&lt;/b&gt;" style="text;html=1;align=center;verticalAlign=middle;whiteSpace=wrap;rounded=0;" vertex="1" parent="1">
          <mxGeometry x="65" y="240" width="60" height="30" as="geometry" />
        </mxCell>
      </root>
    </mxGraphModel>
  </diagram>
</mxfile>
